<?xml version="1.0" encoding="UTF-8"?>
<svg width="192px" height="57px" viewBox="0 0 192 57" version="1.1" xmlns="http://www.w3.org/2000/svg" xmlns:xlink="http://www.w3.org/1999/xlink">
    <!-- Generator: sketchtool 43 (38999) - http://www.bohemiancoding.com/sketch -->
    <title>628ADD64-8934-42D9-A6BE-B7B2F5AB0C71</title>
    <desc>Created with sketchtool.</desc>
    <defs></defs>
    <g id="Page-1" stroke="none" stroke-width="1" fill="none" fill-rule="evenodd">
        <g id="Азбука-Вкуса" transform="translate(-128.000000, -2090.000000)" fill-rule="nonzero">
            <g id="Group-16" transform="translate(-100.000000, -20.000000)">
                <g id="Footer" transform="translate(0.000000, 1898.000000)">
                    <g id="logoF" transform="translate(228.000000, 212.000000)">
                        <g id="Group">
                            <path d="M73.1098299,28.4710615 C73.1098299,44.0703538 56.7942283,56.7164615 36.6694642,56.7164615 C16.5435326,56.7164615 0.228806576,44.0703538 0.228806576,28.4710615 C0.228806576,12.8717692 16.5435326,0.225661538 36.6694642,0.225661538 C56.7942283,0.225661538 73.1098299,12.8720615 73.1098299,28.4710615 Z" id="Shape" fill="#C3C3C3"></path>
                            <path d="M69.0385904,28.4190308 C69.0181613,15.0728462 54.509081,4.27587692 36.6323998,4.30335385 C31.7866034,4.31066154 27.191502,5.11333846 23.0668548,6.54447692 C19.56734,6.11244615 16.1270696,7.49009231 16.1270696,7.49009231 C16.1270696,7.49009231 18.6360622,11.5499538 22.403199,13.034 C25.0511098,14.0772462 28.0398957,13.1994462 28.563174,12.7039846 C28.5637577,12.7036923 27.5352955,10.602 24.2146817,9.13052308 C22.9296876,8.56169231 21.1541019,8.04869231 19.1832718,7.77041538 C20.5105834,7.88470769 21.6368137,7.74089231 24.3174112,8.59589231 C28.0492348,9.78646154 29.0345039,12.0176462 29.0345039,12.0176462 C29.2484264,9.91566154 27.8429003,8.43103077 26.4595544,7.63507692 C29.6394988,6.80433846 33.0643014,6.34775385 36.6341509,6.34249231 C53.3863528,6.31647692 66.9822497,16.2034923 67.0006359,28.4248769 C67.0067647,32.2076308 65.7106805,35.7708615 63.4214474,38.8889077 C63.3814646,38.8494462 61.8889686,37.3206769 60.0626018,35.9839538 C60.8841459,31.0585692 57.2676011,26.4807385 53.3320696,24.2217846 C55.136548,18.4718 49.5917825,12.5984615 39.5464734,12.3882923 C38.0513508,12.3766 36.0055165,12.4537692 34.6738272,12.5972923 L35.2318351,9.04458462 L34.4362653,9.04575385 C31.6488525,9.06855385 30.6130942,10.8566 30.3122019,11.5584308 L29.2355852,13.6329385 C22.987473,15.3695385 19.5600438,18.3393846 19.2536065,18.6042154 C18.5307061,19.2294615 18.6795471,19.4992615 19.9671678,18.9658 C22.2654481,18.0131692 24.9399168,17.1575846 27.7430892,16.5077846 L19.3140184,32.0427692 C14.8044276,31.5259692 10.1007597,32.0559231 7.72105457,35.1172615 C6.82538189,33.0334 6.33887607,30.8174154 6.33566577,28.5172462 C6.32457566,21.4381385 10.8718145,15.1283846 17.9563549,11.0667692 C16.1635503,9.89636923 14.5403077,10.8469538 14.0301624,11.2135077 C14.0161539,11.2234462 14.0164457,11.2240308 14.0021453,11.2325077 C8.00560357,15.6285231 4.28953962,21.7509077 4.2997542,28.5175385 C4.30471556,31.6811846 5.12450851,34.7004308 6.60912465,37.4668308 C6.42730514,38.4206308 6.53324492,39.5445538 7.38017947,40.6287231 C8.51954283,42.0867538 10.801188,42.7312923 13.4692361,41.7964923 C17.0706049,40.5363538 19.8387559,36.5828923 20.718669,35.1488308 C18.1177452,34.7223538 17.0889912,35.6700154 16.72185,36.1608 C15.6607011,37.5776154 14.100789,39.1689385 12.4661644,39.8713538 C9.12016009,41.3083385 6.95525297,38.2762308 9.59761871,35.8357538 C11.3866293,34.1827538 14.9360497,33.8387077 18.1372989,34.2429692 C18.1372989,34.2429692 18.216097,34.2432615 18.2158052,34.2432615 C22.2613623,34.7784769 25.3808948,36.0041231 26.058851,36.2806462 C25.4380965,39.9353692 25.0012043,42.2709077 25.0012043,42.2709077 L26.1928079,42.2858154 C30.0860219,42.2840615 30.4280644,39.3720923 30.4280644,39.3720923 C30.4339013,39.3773538 30.6282701,38.3475538 30.6282701,38.3475538 C34.1981197,40.1046154 37.6702011,41.9812308 37.8467674,42.0852923 C38.7605345,42.5886462 40.082301,42.5597077 40.2868845,41.2297077 L41.7992259,30.9191385 C45.7583968,30.6879231 49.6472331,29.1433692 51.7222519,26.8879231 C53.5284814,28.3073692 55.1998784,30.5695385 55.5185733,33.3067077 C53.3084302,32.3447231 50.8087767,31.7703385 48.2425825,32.1687538 C42.2976974,33.0909846 40.2188846,39.2151231 43.4881336,42.6897846 C45.9408,45.2968769 49.4587011,45.5804154 53.2424732,44.1481077 C55.2392775,43.3922 57.2063136,41.9107846 58.5499686,39.8166923 C58.2668788,39.5290615 57.7298838,39.0224923 57.1202193,38.6462923 C55.4505734,37.6170769 54.2128582,38.7833846 53.853305,39.1920308 C52.7939072,40.5208615 51.3437288,41.4922 49.826426,41.8637231 C42.9114477,43.5547231 42.2594657,34.4858769 49.3475082,34.2137385 C51.5888787,34.1275077 53.5626273,35.0856923 55.300565,36.3464154 C55.2999813,36.3472923 55.2993976,36.3490462 55.2993976,36.3499231 C57.0939533,37.6998 59.5582935,40.1999077 60.7881288,41.0581231 C63.4094817,42.8873846 65.9637102,42.0817846 65.9637102,42.0817846 C65.9637102,42.0817846 65.5221486,41.3530615 64.7878662,40.4246923 C67.4970645,36.8857231 69.0447192,32.7866923 69.0385904,28.4190308 Z M26.5465242,33.5192154 C25.2031611,33.0866 22.6886235,32.5633692 22.1653452,32.4590154 L28.8112424,20.1750769 C28.1175265,24.2676769 27.2577508,29.3269385 26.5465242,33.5192154 Z M42.1179208,28.7487538 L42.7296281,24.5798615 C38.1386125,24.6152308 37.4790425,27.7598769 37.4034546,28.2570923 C35.2067364,27.1960154 37.0719186,24.9101692 40.1616829,24.3240923 C43.5832751,23.6745846 46.8309277,24.4407231 48.7892084,25.2463231 C47.6880768,27.2766923 45.2540885,28.4865538 42.1179208,28.7487538 Z M49.5856538,22.7745692 C47.8453813,22.3182769 45.5255044,21.9049538 43.1064002,21.9914769 L43.9186052,16.4545846 C39.025238,15.6282308 38.7587834,18.924 38.7587834,18.924 C38.5848437,20.1066769 38.3860972,21.4577231 38.1745095,22.8920769 C33.6310646,24.6544 33.1976746,28.7157231 37.0838842,30.2971077 C36.6913525,32.9609077 36.0825636,37.0842 36.0735164,37.0777692 C34.809827,36.5253077 32.2698989,35.4858615 31.1404583,35.0684462 L34.2252613,15.4320923 C47.4470127,14.0594154 50.0301339,20.1566615 49.5856538,22.7745692 Z M58.8928866,43.5152615 L58.8876334,43.5193538 C53.3808078,47.8566154 45.4090582,50.5873538 36.7015671,50.6005077 C28.0539043,50.6136615 20.2482146,47.9595077 14.7157066,43.7575846 C14.1693726,43.3430923 12.7839838,42.4027385 11.0425439,43.2507231 C16.9702102,48.9717692 26.2631426,52.6498769 36.7062367,52.6338 C47.1861032,52.6180154 56.4968381,48.8849538 62.4040753,43.1104154 C60.7382233,42.2846462 59.2833754,43.2223692 58.8928866,43.5152615 Z" id="Shape" fill="#F4F4F4"></path>
                        </g>
                        <g id="Group" transform="translate(77.922648, 5.846154)">
                            <g id="Shape" fill="#666666">
                                <path d="M70.1639452,0.303415385 C68.2707459,0.303415385 67.5554335,1.064 66.8815631,2.68338462 C65.9234356,5.52549231 65.0271792,8.17643077 64.8433168,8.72158462 C64.5517635,8.04313846 62.7621692,3.89207692 61.2153901,0.303415385 L55.3641872,0.303415385 C58.05354,6.06070769 61.9601788,14.4309385 62.2806248,15.1172769 C62.1635949,15.3870769 62.076625,15.5952 62.076625,15.5952 C61.5545141,16.7635538 60.4846099,16.9216923 59.5603364,16.9216923 L57.4593433,16.8740462 L56.9535757,20.6582615 C58.1857459,20.9958769 59.4564395,21.1309231 60.8832703,21.1309231 C63.2784433,21.1309231 65.1051019,20.0429538 66.056517,18.0672462 L67.1710735,15.7115385 C67.384996,15.2546615 67.599794,14.7668 67.8023345,14.2482462 L73.3389283,0.303123077 L70.1639452,0.303123077 L70.1639452,0.303415385 Z"></path>
                                <path d="M48.3099987,7.64881538 L45.2184834,7.64881538 L45.2184834,4.49335385 L51.7321747,4.49335385 C53.2731169,4.42641538 54.141648,3.57726154 54.141648,2.05404615 L54.1445664,2.06018462 L54.1445664,0.260738462 L43.0258509,0.260738462 C40.7322401,0.308384615 39.6757608,1.7518 39.6757608,3.44484615 L39.6757608,20.8257538 L48.7191656,20.8257538 C54.2650985,20.8257538 56.2344694,17.2762615 56.2344694,14.2374308 C56.2347612,10.9583231 53.7844296,7.64881538 48.3099987,7.64881538 Z M46.7865672,16.5931385 L45.2184834,16.5931385 L45.2184834,11.8817231 L47.4595621,11.8817231 C49.368521,11.8782154 50.3972751,12.9124 50.3972751,14.1786769 C50.3975669,15.2154923 50.0240051,16.5931385 46.7865672,16.5931385 Z"></path>
                                <path d="M99.2112903,12.8100923 C99.4482686,12.1795846 101.342343,7.15247692 101.74042,6.09373846 C102.174686,7.13990769 104.257293,12.1664308 104.524039,12.8100923 L99.2112903,12.8100923 Z M86.0946031,10.3398 C86.7165251,9.76073846 87.4312538,8.70404615 87.9139656,7.6076 C87.9157167,7.60701538 88.6470806,5.93530769 88.6470806,5.93530769 C89.1680241,4.76753846 90.1833533,4.6094 91.1093779,4.6094 L91.241,4.6094 L91.7990079,0.439338462 L91.4505448,0.381461538 C90.7466144,0.258984615 90.1530014,0.201984615 89.5879892,0.201984615 C87.2039064,0.201984615 85.3661577,1.28907692 84.4141589,3.26478462 L83.1253708,5.99318462 C82.439243,7.46261538 81.587347,8.08961538 80.2775461,8.08961538 L79.12826,8.08961538 L79.12826,0.260153846 L76.9277478,0.260153846 C74.6709095,0.307215385 73.6158894,1.7062 73.5849538,3.36446154 L73.5849538,20.8248769 L79.12826,20.8248769 L79.12826,12.3210615 L79.9562246,12.3210615 C81.7574927,12.3210615 83.2648728,13.6270923 84.4407168,16.2020308 C84.4407168,16.2029077 86.5665167,20.8248769 86.5665167,20.8248769 L96.1871912,20.8248769 C96.1871912,20.8248769 97.5547774,17.1999692 97.6791034,16.8658615 L106.224329,16.8658615 C106.355951,17.1856462 107.862747,20.8248769 107.862747,20.8248769 L113.844697,20.8248769 L104.723953,0.259861538 L100.907786,0.259861538 C98.959428,0.259861538 98.2581242,1.05932308 97.5644083,2.78189231 L97.5644083,2.78130769 L91.401223,18.0941385 L89.9586325,15.1383231 C88.7719903,12.6940462 87.4726958,11.0878154 86.0946031,10.3398 Z"></path>
                                <path d="M34.787355,9.82007692 C36.1925892,9.14718462 37.8797459,7.57895385 37.8797459,5.2668 C37.8797459,1.69363077 33.707528,0.0941230769 29.5758766,0.0941230769 C27.6438619,0.0941230769 25.4308003,0.449861538 22.8488465,1.1552 L23.3254296,5.50941538 C23.3254296,5.50941538 25.9853061,4.71316923 27.4535789,4.58747692 C30.4817639,4.32878462 31.7944832,5.24458462 31.7944832,6.34424615 C31.7944832,6.84321538 31.7944832,8.36263077 27.7746085,8.36263077 L25.8352977,8.36263077 L25.8352977,12.5648462 L27.4535789,12.5648462 C30.7026906,12.5648462 31.9112213,13.0798923 31.9112213,14.4668923 C31.9112213,15.8451231 30.5275836,16.5919692 27.8029175,16.5437385 C26.3098378,16.5437385 24.7259944,16.359 23.3041249,16.0272308 C23.3619102,16.2473385 23.6896523,17.4589538 24.2076774,18.5343538 C24.5733594,19.2940615 25.3896502,20.7640769 27.0032618,20.9342 C27.0032618,20.9342 28.1645136,21.0607692 29.0809073,21.0370923 C34.7456211,20.8886 37.9976513,18.7907077 37.9976513,14.8737846 C37.9973595,12.1915692 36.4482456,10.7905385 34.787355,9.82007692 Z"></path>
                                <path d="M14.6252346,0.261323077 L10.8041065,0.261323077 C8.95672682,0.261323077 8.23149169,0.988292308 7.57046249,2.52992308 L0.204875276,20.8254615 L6.08788926,20.8254615 C6.08788926,20.8254615 7.45635105,17.2005538 7.58126076,16.8670308 L16.1250267,16.8670308 C16.2581081,17.1862308 17.7649045,20.8254615 17.7649045,20.8254615 L23.7477295,20.8254615 L14.6252346,0.261323077 Z M9.11403134,12.8100923 C9.35130143,12.1795846 11.2442089,7.15276923 11.6440367,6.09373846 C12.0780104,7.13990769 14.1603254,12.1664308 14.4264881,12.8100923 L9.11403134,12.8100923 Z"></path>
                            </g>
                            <g transform="translate(5.836902, 24.261538)" id="Shape" fill="#717171">
                                <path d="M13.7494074,9.54209231 C15.2071738,8.62161538 16.0616963,7.19573846 16.0616963,5.62253846 C16.0616963,3.07156923 13.9026261,0.325630769 9.1616021,0.325630769 L3.57101692,0.325630769 C1.39677076,0.371230769 0.347587541,1.67083077 0.243398833,3.249 L0.243398833,20.8894769 L10.2463904,20.8894769 C17.0551371,20.8894769 17.5842523,16.1836154 17.5842523,14.7407846 C17.5842523,12.2854 16.1556705,10.3900769 13.7494074,9.54209231 Z M5.78641325,4.55678462 L8.10891674,4.55678462 C9.78031376,4.55678462 10.3724675,5.54186154 10.3724675,6.38487692 C10.3724675,7.25478462 9.78031376,8.27084615 8.10891674,8.27084615 L5.78641325,8.27084615 L5.78641325,4.55678462 L5.78641325,4.55678462 Z M8.31408386,16.6571538 L5.78641325,16.6571538 L5.78641325,12.5028769 L8.98795425,12.5028769 C10.322562,12.5028769 11.7496847,13.0214308 11.7496847,14.4771231 C11.7496847,15.8576923 11.1872991,16.6571538 8.31408386,16.6571538 Z"></path>
                                <path d="M85.8439082,0.357784615 L82.0219044,0.357784615 C80.1754003,0.357784615 79.4501652,1.08563077 78.7885523,2.62638462 L71.4238406,20.9225077 L77.3068546,20.9225077 C77.3068546,20.9225077 78.6753164,17.2970154 78.8008098,16.9634923 L87.3425329,16.9634923 C87.4773653,17.2832769 88.983578,20.9225077 88.983578,20.9225077 L94.9661112,20.9225077 L85.8439082,0.357784615 Z M80.3321212,12.9068462 C80.5702668,12.2766308 82.4622987,7.24923077 82.8627102,6.1902 C83.2963921,7.23724615 85.3795826,12.2626 85.6457453,12.9068462 L80.3321212,12.9068462 Z"></path>
                                <path d="M53.4371339,0.358369231 C51.5451019,0.358369231 50.8297895,1.11866154 50.1553355,2.73775385 C49.1974998,5.57956923 48.3006597,8.2308 48.1176728,8.77566154 C47.825244,8.09750769 45.4624659,3.84092308 43.9437039,0.316569231 L38.1966897,0.316569231 C40.8370125,5.97126154 45.2339511,14.4856 45.5546889,15.1716462 C45.4370753,15.4414462 45.350981,15.6498615 45.350981,15.6498615 C44.8282864,16.8179231 43.758674,16.9760615 42.8338169,16.9760615 L40.7328238,16.9284154 L40.2270562,20.7123385 C41.4601019,21.0499538 42.7302118,21.1847077 44.1570426,21.1847077 C46.5522156,21.1847077 48.3785823,20.0973231 49.330873,18.1216154 L50.4442621,15.7659077 C50.659352,15.3090308 50.8729826,14.8214615 51.0769824,14.3026154 L56.6132843,0.358076923 L53.4371339,0.358076923 L53.4371339,0.358369231 Z"></path>
                                <path d="M36.9303737,4.70732308 L37.4877979,0.536676923 L37.1410859,0.479384615 C36.4354044,0.356323077 35.8414996,0.299615385 35.2764874,0.299615385 C32.8926964,0.299615385 31.0552395,1.387 30.1023652,3.36270769 L28.8141608,6.09169231 C28.128033,7.55995385 27.2770126,8.18666154 25.9675035,8.18666154 L24.8161745,8.18666154 L24.8161745,0.358369231 L22.6185807,0.358369231 C20.3439398,0.406307692 19.2895034,1.82633846 19.2728682,3.50243077 L19.2728682,20.9225077 L24.8161745,20.9225077 L24.8161745,12.4192769 L25.6455983,12.4192769 C27.4465746,12.4192769 28.9542465,13.7253077 30.1303823,16.2996615 C30.1303823,16.3002462 32.2558904,20.9222154 32.2558904,20.9222154 L38.424037,20.9222154 L35.6491736,15.2353692 C34.4607803,12.7910923 33.1614858,11.1851538 31.7828094,10.4362615 C32.4058988,9.85749231 33.1200438,8.80109231 33.6027556,7.70464615 C33.603923,7.70347692 34.3355787,6.03206154 34.3355787,6.03206154 C34.8576896,4.86458462 35.872727,4.70673846 36.7987516,4.70673846 L36.9303737,4.70673846 L36.9303737,4.70732308 Z"></path>
                                <path d="M71.1168196,18.3461077 C71.585231,17.0812923 71.9786382,15.3131231 71.9774708,15.3189692 C70.4765114,15.9079692 68.6793291,16.6898923 66.1201392,16.6317231 C62.2476463,16.6317231 60.205606,13.9118 60.205606,10.6350308 C60.205606,7.43016923 62.3203157,4.57958462 66.0048604,4.57958462 C68.0072098,4.57958462 69.8029328,5.12941538 72.0095738,6.41995385 L72.2234963,6.54447692 L72.2234963,1.43610769 C69.8531302,0.4864 67.929579,0.0599230769 66.0457187,0.0599230769 C62.9410703,0.0599230769 60.1072541,1.14613846 58.0643383,3.11950769 C56.0106242,5.10223077 54.8794325,7.85635385 54.8794325,10.8738462 C54.8794325,13.2561538 55.8705385,15.7892923 57.5323046,17.6507077 C58.9608865,19.2519692 61.5699819,21.1595692 65.8875387,21.1595692 C66.8188164,21.1595692 67.4804293,21.1332615 68.3086858,20.9575846 C69.7521518,20.6500769 70.6487,19.6100462 71.1168196,18.3461077 Z"></path>
                            </g>
                        </g>
                    </g>
                </g>
            </g>
        </g>
    </g>
</svg>