<?xml version="1.0" encoding="UTF-8"?>
<svg width="203px" height="60px" viewBox="0 0 203 60" version="1.1" xmlns="http://www.w3.org/2000/svg" xmlns:xlink="http://www.w3.org/1999/xlink">
    <!-- Generator: sketchtool 43 (38999) - http://www.bohemiancoding.com/sketch -->
    <title>5A420BA8-E071-41FF-B6DB-E413440B3A33</title>
    <desc>Created with sketchtool.</desc>
    <defs></defs>
    <g id="Page-1" stroke="none" stroke-width="1" fill="none" fill-rule="evenodd">
        <g id="Азбука-Вкуса" transform="translate(-30.000000, -24.000000)" fill-rule="nonzero">
            <g id="Group-16" transform="translate(-100.000000, -20.000000)">
                <g id="Header" transform="translate(130.000000, 29.000000)">
                    <g id="logo" transform="translate(0.000000, 15.000000)">
                        <g id="Group">
                            <path d="M77.1067133,29.9695385 C77.1067133,46.3898462 59.8991447,59.7015385 38.6741682,59.7015385 C17.4479606,59.7015385 0.241315335,46.3898462 0.241315335,29.9695385 C0.241315335,13.5492308 17.4479606,0.237538462 38.6741682,0.237538462 C59.8991447,0.237538462 77.1067133,13.5495385 77.1067133,29.9695385 Z" id="Shape" fill="#80BB3D"></path>
                            <path d="M72.8129009,29.9147692 C72.7913549,15.8661538 57.4890693,4.50092308 38.6350776,4.52984615 C33.5243635,4.53753846 28.6780498,5.38246154 24.32791,6.88892308 C20.6370781,6.43415385 17.0087297,7.88430769 17.0087297,7.88430769 C17.0087297,7.88430769 19.6548878,12.1578462 23.6279724,13.72 C26.4206434,14.8181538 29.5728249,13.8941538 30.1247106,13.3726154 C30.1253262,13.3723077 29.0406384,11.16 25.5384881,9.61107692 C24.1832439,9.01230769 22.3105877,8.47230769 20.2320131,8.17938462 C21.6318883,8.29969231 22.8196892,8.14830769 25.6468337,9.04830769 C29.5826745,10.3015385 30.6218079,12.6501538 30.6218079,12.6501538 C30.8474254,10.4375385 29.3650598,8.87476923 27.906087,8.03692308 C31.2598777,7.16246154 34.8719127,6.68184615 38.6369244,6.67630769 C56.3049621,6.64892308 70.6441409,17.0563077 70.6635323,29.9209231 C70.6699961,33.9027692 69.3030555,37.6535385 66.888671,40.9356923 C66.8465024,40.8941538 65.2724123,39.2849231 63.3461988,37.8778462 C64.2126563,32.6932308 60.3983966,27.8744615 56.2477112,25.4966154 C58.1508397,19.444 52.3029442,13.2615385 41.7084623,13.0403077 C40.131602,13.028 37.9739228,13.1092308 36.5694306,13.2603077 L37.1579446,9.52061538 L36.3188813,9.52184615 C33.3790819,9.54584615 32.286699,11.428 31.9693571,12.1667692 L30.8338822,14.3504615 C24.2441883,16.1784615 20.6293831,19.3046154 20.3061929,19.5833846 C19.5437719,20.2415385 19.70075,20.5255385 21.0587644,19.964 C23.4826907,18.9612308 26.3033715,18.0606154 29.2597922,17.3766154 L20.3699076,33.7292308 C15.6137793,33.1852308 10.652964,33.7430769 8.14316135,36.9655385 C7.19852262,34.772 6.68541974,32.4393846 6.68203393,30.0181538 C6.67033753,22.5664615 11.466172,15.9246154 18.9380212,11.6492308 C17.0472047,10.4172308 15.3352202,11.4178462 14.7971855,11.8036923 C14.7824111,11.8141538 14.7827189,11.8147692 14.7676367,11.8236923 C8.44326652,16.4510769 4.52404693,22.8956923 4.53481993,30.0184615 C4.54005254,33.3486154 5.40466322,36.5267692 6.9704427,39.4387692 C6.77868319,40.4427692 6.89041465,41.6258462 7.78365075,42.7670769 C8.98530262,44.3018462 11.3916844,44.9803077 14.2055935,43.9963077 C18.0038477,42.6698462 20.9233323,38.5083077 21.8513498,36.9987692 C19.1082347,36.5498462 18.0232391,37.5473846 17.6360265,38.064 C16.516865,39.5553846 14.8716731,41.2304615 13.1476843,41.9698462 C9.61875538,43.4824615 7.3354937,40.2907692 10.1223165,37.7218462 C12.0091315,35.9818462 15.7525972,35.6196923 19.1288573,36.0452308 C19.1288573,36.0452308 19.2119633,36.0455385 19.2116555,36.0455385 C23.4783815,36.6089231 26.7684576,37.8990769 27.4834774,38.1901538 C26.8287864,42.0372308 26.3680095,44.4956923 26.3680095,44.4956923 L27.6247576,44.5113846 C31.7308119,44.5095385 32.0915537,41.4443077 32.0915537,41.4443077 C32.0977097,41.4498462 32.3027047,40.3658462 32.3027047,40.3658462 C36.0677164,42.2153846 39.729615,44.1907692 39.9158341,44.3003077 C40.8795564,44.8301538 42.2735834,44.7996923 42.4893513,43.3996923 L44.0843718,32.5464615 C48.259989,32.3030769 52.3614263,30.6772308 54.5498855,28.3030769 C56.4548607,29.7972308 58.2176323,32.1784615 58.5537501,35.0596923 C56.2227794,34.0470769 53.5864709,33.4424615 50.879984,33.8618462 C44.6100945,34.8326154 42.4176339,41.2790769 45.8656114,44.9366154 C48.4523641,47.6809231 52.1625873,47.9793846 56.1532166,46.4716923 C58.2591854,45.676 60.3337585,44.1166154 61.7508705,41.9123077 C61.4523043,41.6095385 60.885952,41.0763077 60.2429575,40.6803077 C58.4820327,39.5969231 57.1766522,40.8246154 56.7974423,41.2547692 C55.6801277,42.6535385 54.1506687,43.676 52.5504156,44.0670769 C45.2573983,45.8470769 44.5697727,36.3009231 52.0453155,36.0144615 C54.4092208,35.9236923 56.4908734,36.9323077 58.3238234,38.2593846 C58.3232078,38.2603077 58.3225922,38.2621538 58.3225922,38.2630769 C60.2152555,39.684 62.8143201,42.3156923 64.11139,43.2190769 C66.8760512,45.1446154 69.5699183,44.2966154 69.5699183,44.2966154 C69.5699183,44.2966154 69.1042166,43.5295385 68.3297914,42.5523077 C71.1871004,38.8270769 72.8193647,34.5123077 72.8129009,29.9147692 Z M27.9978114,35.2833846 C26.5810073,34.828 23.929001,34.2772308 23.3771153,34.1673846 L30.3863408,21.2369231 C29.6546998,25.5449231 28.7479205,30.8704615 27.9978114,35.2833846 Z M44.4204896,30.2618462 L45.0656388,25.8735385 C40.2236343,25.9107692 39.5280059,29.2209231 39.4482856,29.7443077 C37.1314738,28.6273846 39.0986246,26.2212308 42.3573051,25.6043077 C45.9659543,24.9206154 49.3911546,25.7270769 51.4564938,26.5750769 C50.2951637,28.7123077 47.7281103,29.9858462 44.4204896,30.2618462 Z M52.2964804,23.9732308 C50.461068,23.4929231 48.0143644,23.0578462 45.4630088,23.1489231 L46.3196167,17.3206154 C41.1587312,16.4507692 40.8777096,19.92 40.8777096,19.92 C40.6942607,21.1649231 40.4846488,22.5870769 40.2614937,24.0969231 C35.4696606,25.952 35.0125774,30.2270769 39.1112445,31.8916923 C38.6972532,34.6956923 38.0551821,39.036 38.0456403,39.0292308 C36.7128655,38.4476923 34.0340806,37.3535385 32.842894,36.9141538 L36.0963418,16.2443077 C50.0409208,14.7993846 52.7652601,21.2175385 52.2964804,23.9732308 Z M62.1125357,45.8055385 L62.1069953,45.8098462 C56.2991139,50.3753846 47.8915522,53.2498462 38.7080262,53.2636923 C29.5875993,53.2775385 21.3551759,50.4836923 15.5202081,46.0606154 C14.9440062,45.6243077 13.4828787,44.6344615 11.6462351,45.5270769 C17.8979644,51.5492308 27.6989375,55.4209231 38.712951,55.404 C49.7657474,55.3873846 59.5854963,51.4578462 65.8156796,45.3793846 C64.0587562,44.5101538 62.5243723,45.4972308 62.1125357,45.8055385 Z" id="Shape" fill="#FFFFFF"></path>
                        </g>
                        <g id="Group" transform="translate(82.182646, 6.153846)" fill="#4B721D">
                            <g id="Shape">
                                <path d="M73.9997784,0.319384615 C72.0030786,0.319384615 71.2486604,1.12 70.5379498,2.82461538 C69.5274419,5.81630769 68.5821875,8.60676923 68.3882734,9.18061538 C68.080781,8.46646154 66.1933504,4.09692308 64.5620095,0.319384615 L58.3909238,0.319384615 C61.2273024,6.37969231 65.3475155,15.1904615 65.6854801,15.9129231 C65.5620522,16.1969231 65.4703278,16.416 65.4703278,16.416 C64.9196733,17.6458462 63.7912778,17.8123077 62.8164747,17.8123077 L60.6006213,17.7621538 L60.0672036,21.7455385 C61.3667359,22.1009231 62.7068978,22.2430769 64.2117329,22.2430769 C66.7378489,22.2430769 68.6643702,21.0978462 69.6677987,19.0181538 L70.8432876,16.5384615 C71.0689051,16.0575385 71.295446,15.544 71.5090594,14.9981538 L77.3483364,0.319076923 L73.9997784,0.319076923 L73.9997784,0.319384615 Z"></path>
                                <path d="M50.9510859,8.05138462 L47.6905587,8.05138462 L47.6905587,4.72984615 L54.5603507,4.72984615 C56.1855356,4.65938462 57.1015489,3.76553846 57.1015489,2.16215385 L57.1046269,2.16861538 L57.1046269,0.274461538 L45.378056,0.274461538 C42.9590544,0.324615385 41.8448178,1.844 41.8448178,3.62615385 L41.8448178,21.9218462 L51.3826217,21.9218462 C57.2317484,21.9218462 59.3087839,18.1855385 59.3087839,14.9867692 C59.3090917,11.5350769 56.7248015,8.05138462 50.9510859,8.05138462 Z M49.344369,17.4664615 L47.6905587,17.4664615 L47.6905587,12.5070769 L50.0541562,12.5070769 C52.0674771,12.5033846 53.1524727,13.592 53.1524727,14.9249231 C53.1527805,16.0163077 52.7587963,17.4664615 49.344369,17.4664615 Z"></path>
                                <path d="M104.635129,13.4843077 C104.885063,12.8206154 106.882686,7.52892308 107.302526,6.41446154 C107.760532,7.51569231 109.956994,12.8067692 110.238324,13.4843077 L104.635129,13.4843077 Z M90.8013585,10.884 C91.4572807,10.2744615 92.2110833,9.16215385 92.7201848,8.008 C92.7220316,8.00738462 93.4933788,6.24769231 93.4933788,6.24769231 C94.0428022,5.01846154 95.113639,4.852 96.0902889,4.852 L96.2291068,4.852 L96.8176207,0.462461538 L96.4501073,0.401538462 C95.7076933,0.272615385 95.0816277,0.212615385 94.4857266,0.212615385 C91.971307,0.212615385 90.0330893,1.35692308 89.0290452,3.43661538 L87.6697996,6.30861538 C86.9461614,7.85538462 86.0476927,8.51538462 84.6662855,8.51538462 L83.4541684,8.51538462 L83.4541684,0.273846154 L81.1333551,0.273846154 C78.7531364,0.323384615 77.6404388,1.796 77.607812,3.54153846 L77.607812,21.9209231 L83.4541684,21.9209231 L83.4541684,12.9695385 L84.3273975,12.9695385 C86.2271402,12.9695385 87.8169281,14.3443077 89.057055,17.0547692 C89.057055,17.0556923 91.2990714,21.9209231 91.2990714,21.9209231 L101.445704,21.9209231 C101.445704,21.9209231 102.888056,18.1052308 103.019179,17.7535385 L112.031568,17.7535385 C112.170385,18.0901538 113.759558,21.9209231 113.759558,21.9209231 L120.068538,21.9209231 L110.449167,0.273538462 L106.424372,0.273538462 C104.369498,0.273538462 103.629854,1.11507692 102.898213,2.92830769 L102.898213,2.92769231 L96.3980891,19.0464615 L94.8766328,15.9350769 C93.6251173,13.3621538 92.254791,11.6713846 90.8013585,10.884 Z"></path>
                                <path d="M36.6891649,10.3369231 C38.1712227,9.62861538 39.9506155,7.97784615 39.9506155,5.544 C39.9506155,1.78276923 35.5503043,0.0990769231 31.1927772,0.0990769231 C29.1551401,0.0990769231 26.8210914,0.473538462 24.0979833,1.216 L24.6006209,5.79938462 C24.6006209,5.79938462 27.4059117,4.96123077 28.9544544,4.82892308 C32.148189,4.55661538 33.5326741,5.52061538 33.5326741,6.67815385 C33.5326741,7.20338462 33.5326741,8.80276923 29.2930346,8.80276923 L27.2477024,8.80276923 L27.2477024,13.2261538 L28.9544544,13.2261538 C32.3811937,13.2261538 33.6557942,13.7683077 33.6557942,15.2283077 C33.6557942,16.6790769 32.1965136,17.4652308 29.3228912,17.4144615 C27.7481855,17.4144615 26.077754,17.22 24.5781515,16.8707692 C24.639096,17.1024615 24.9847556,18.3778462 25.5311009,19.5098462 C25.9167745,20.3095385 26.7776916,21.8569231 28.4795187,22.036 C28.4795187,22.036 29.7042556,22.1692308 30.6707481,22.1443077 C36.6451495,21.988 40.0749668,19.7796923 40.0749668,15.6566154 C40.074659,12.8332308 38.4408557,11.3584615 36.6891649,10.3369231 Z"></path>
                                <path d="M15.42479,0.275076923 L11.3947624,0.275076923 C9.44638728,0.275076923 8.68150385,1.04030769 7.98433646,2.66307692 L0.216075721,21.9215385 L6.42071159,21.9215385 C6.42071159,21.9215385 7.86398659,18.1058462 7.99572507,17.7547692 L17.0065751,17.7547692 C17.146932,18.0907692 18.7361043,21.9215385 18.7361043,21.9215385 L25.0460078,21.9215385 L15.42479,0.275076923 Z M9.61229157,13.4843077 C9.86253311,12.8206154 11.858925,7.52923077 12.2806113,6.41446154 C12.7383101,7.51569231 14.9344643,12.8067692 15.2151781,13.4843077 L9.61229157,13.4843077 Z"></path>
                            </g>
                            <g transform="translate(6.156003, 25.538462)" id="Shape">
                                <path d="M14.5010817,10.0443077 C16.0385436,9.07538462 16.9397825,7.57446154 16.9397825,5.91846154 C16.9397825,3.23323077 14.6626768,0.342769231 9.662463,0.342769231 L3.7662429,0.342769231 C1.47313162,0.390769231 0.366590005,1.75876923 0.256705343,3.42 L0.256705343,21.9889231 L10.8065562,21.9889231 C17.9875343,21.9889231 18.545576,17.0353846 18.545576,15.5166154 C18.545576,12.932 17.0388941,10.9369231 14.5010817,10.0443077 Z M6.10275401,4.79661538 L8.55222778,4.79661538 C10.3149994,4.79661538 10.9395259,5.83353846 10.9395259,6.72092308 C10.9395259,7.63661538 10.3149994,8.70615385 8.55222778,8.70615385 L6.10275401,8.70615385 L6.10275401,4.79661538 L6.10275401,4.79661538 Z M8.7686113,17.5338462 L6.10275401,17.5338462 L6.10275401,13.1609231 L9.4793219,13.1609231 C10.8868921,13.1609231 12.3920349,13.7067692 12.3920349,15.2390769 C12.3920349,16.6923077 11.798904,17.5338462 8.7686113,17.5338462 Z"></path>
                                <path d="M90.5369582,0.376615385 L86.5060071,0.376615385 C84.5585555,0.376615385 83.793672,1.14276923 83.095889,2.76461538 L75.3285517,22.0236923 L81.5331876,22.0236923 C81.5331876,22.0236923 82.9764626,18.2073846 83.1088166,17.8563077 L92.1175121,17.8563077 C92.2597158,18.1929231 93.8482724,22.0236923 93.8482724,22.0236923 L100.157868,22.0236923 L90.5369582,0.376615385 Z M84.7238441,13.5861538 C84.9750091,12.9227692 86.9704776,7.63076923 87.3927794,6.516 C87.8501705,7.61815385 90.0472481,12.908 90.3279619,13.5861538 L84.7238441,13.5861538 Z"></path>
                                <path d="M56.3585193,0.377230769 C54.3630508,0.377230769 53.6086326,1.17753846 52.8973064,2.88184615 C51.8871062,5.87323077 50.9412363,8.664 50.7482456,9.23753846 C50.4398298,8.52369231 47.9478796,4.04307692 46.3460875,0.333230769 L40.2848865,0.333230769 C43.0695547,6.28553846 47.7068721,15.248 48.0451444,15.9701538 C47.921101,16.2541538 47.8302999,16.4735385 47.8302999,16.4735385 C47.2790298,17.7030769 46.1509422,17.8695385 45.1755234,17.8695385 L42.95967,17.8193846 L42.4262523,21.8024615 C43.726708,22.1578462 45.0662544,22.2996923 46.5710894,22.2996923 C49.0972054,22.2996923 51.0234189,21.1550769 52.0277709,19.0753846 L53.2020285,16.5956923 C53.4288773,16.1147692 53.654187,15.6015385 53.8693393,15.0553846 L59.7083086,0.376923077 L56.3585193,0.376923077 L56.3585193,0.377230769 Z"></path>
                                <path d="M38.9493416,4.95507692 L39.5372399,0.564923077 L39.1715733,0.504615385 C38.4273125,0.375076923 37.8009391,0.315384615 37.205038,0.315384615 C34.6909262,0.315384615 32.7530163,1.46 31.7480487,3.53969231 L30.3894188,6.41230769 C29.6657806,7.95784615 28.7682353,8.61753846 27.3871359,8.61753846 L26.1728642,8.61753846 L26.1728642,0.377230769 L23.8551289,0.377230769 C21.4561344,0.427692308 20.3440524,1.92246154 20.3265078,3.68676923 L20.3265078,22.0236923 L26.1728642,22.0236923 L26.1728642,13.0729231 L27.0476323,13.0729231 C28.9470672,13.0729231 30.5371629,14.4476923 31.7775976,17.1575385 C31.7775976,17.1581538 34.0193062,22.0233846 34.0193062,22.0233846 L40.5246628,22.0233846 L37.5980988,16.0372308 C36.3447365,13.4643077 34.9744101,11.7738462 33.5203621,10.9855385 C34.1775155,10.3763077 34.9307025,9.26430769 35.439804,8.11015385 C35.4410352,8.10892308 36.2126902,6.34953846 36.2126902,6.34953846 C36.7633447,5.12061538 37.8338737,4.95446154 38.8105237,4.95446154 L38.9493416,4.95446154 L38.9493416,4.95507692 Z"></path>
                                <path d="M75.0047459,19.3116923 C75.4987652,17.9803077 75.9136798,16.1190769 75.9124486,16.1252308 C74.3294323,16.7452308 72.4339989,17.5683077 69.7348992,17.5070769 C65.6506987,17.5070769 63.4970209,14.644 63.4970209,11.1947692 C63.4970209,7.82123077 65.7273409,4.82061538 69.6133181,4.82061538 C71.7251351,4.82061538 73.6190295,5.39938462 75.9463066,6.75784615 L76.1719242,6.88892308 L76.1719242,1.51169231 C73.6719712,0.512 71.6432602,0.0630769231 69.6564101,0.0630769231 C66.3820319,0.0630769231 63.3932922,1.20646154 61.238691,3.28369231 C59.0727012,5.37076923 57.8796677,8.26984615 57.8796677,11.4461538 C57.8796677,13.9538462 58.9249571,16.6203077 60.6775713,18.5796923 C62.1842532,20.2652308 64.9359867,22.2732308 69.4895824,22.2732308 C70.4717728,22.2732308 71.1695558,22.2455385 72.0430927,22.0606154 C73.5654723,21.7369231 74.5110344,20.6421538 75.0047459,19.3116923 Z"></path>
                            </g>
                        </g>
                    </g>
                </g>
            </g>
        </g>
    </g>
</svg>